<svg width="40" height="27" viewBox="0 0 40 27" fill="none" xmlns="http://www.w3.org/2000/svg">
<rect x="0.5" y="0.5" width="39" height="26" rx="1.5" stroke="#DD8A08"/>
<path fill-rule="evenodd" clip-rule="evenodd" d="M25.7754 8.48377C27.4087 10.0242 27.4081 12.5218 25.7741 14.0616L20 19.5L14.2259 14.0616C12.5919 12.5218 12.5913 10.0242 14.2246 8.48376C15.6398 7.09101 17.4659 7.18545 19.1896 8.71392C19.463 8.95633 19.7338 9.23481 20 9.54915C20.2661 9.23481 20.5369 8.95633 20.8103 8.71392C22.534 7.18545 24.3602 7.09101 25.7754 8.48377ZM20 17.9108L24.9673 13.2324C26.1217 12.1445 26.1221 10.401 24.9681 9.31274L24.9592 9.30428L24.9504 9.29564C24.3708 8.72525 23.7906 8.57446 23.2139 8.67929C22.5784 8.7948 21.7656 9.25746 20.8962 10.2842L20 11.3426L19.1037 10.2842C18.2343 9.25745 17.4216 8.7948 16.7861 8.67929C16.2094 8.57446 15.6292 8.72524 15.0496 9.29564L15.0408 9.30428L15.0319 9.31273C13.878 10.4009 13.8783 12.1442 15.0325 13.2321C15.0324 13.2321 15.0326 13.2322 15.0325 13.2321L20 17.9108Z" fill="#DD8A08"/>
<path d="M23.5 8.50003C22.7 8.50003 20.8333 9.83336 20 10.5C20 10 17 7.00001 15 8.00001C13 9.00001 14 12 14 13C14 13.8 18.1666 17 20 18.5L21 17.5C25.5 14.5 26 12.2 26 11C26 9.50003 24.5 8.50003 23.5 8.50003Z" fill="#DD8A08"/>
</svg>
